<svg version="1.1" xmlns="http://www.w3.org/2000/svg" xmlns:xlink="http://www.w3.org/1999/xlink" width="237.67832" height="184.42626" viewBox="0,0,237.67832,184.42626"><g transform="translate(-121.16084,-87.78687)"><g data-paper-data="{&quot;isPaintingLayer&quot;:true}" fill="none" fill-rule="nonzero" stroke-width="8" stroke-linecap="round" stroke-linejoin="miter" stroke-miterlimit="10" stroke-dasharray="" stroke-dashoffset="0" style="mix-blend-mode: normal"><path d="M173.36558,184.49618c-1.88619,1.7607 -3.34597,2.93923 -4.83777,3.8007c-7.30253,4.2161 -16.29952,4.2161 -23.60197,0c-2.69102,-1.5538 -5.27772,-4.14058 -10.45119,-9.31334c-5.17347,-5.17355 -7.76025,-7.76033 -9.31381,-10.45174c-4.2161,-7.30245 -4.2161,-16.29952 0,-23.60197c1.55356,-2.69062 4.14034,-5.2774 9.31381,-10.45095l22.25217,-22.25209c5.17347,-5.17347 7.76017,-7.76025 10.45111,-9.31381c7.30252,-4.2161 16.29967,-4.2161 23.60212,-0.00008c2.69062,1.55364 5.2774,4.14042 10.45095,9.31389c5.17355,5.17347 7.76032,7.76017 9.31412,10.45111c4.2161,7.30245 4.2161,16.29952 0,23.60197c-0.86147,1.49165 -2.04,2.95182 -3.80149,4.83762M184.5924,128.96625c-1.76149,1.8858 -2.94002,3.34598 -3.80149,4.83762c-4.21578,7.30245 -4.21578,16.29952 0,23.60197c1.55379,2.69141 4.14057,5.27819 9.31412,10.45095c5.17355,5.17355 7.76033,7.76032 10.45095,9.31412c7.30245,4.2161 16.29952,4.2161 23.60197,0c2.69141,-1.55379 5.27819,-4.14057 10.45174,-9.31412l22.25193,-22.25193c5.17356,-5.17355 7.76033,-7.76033 9.31334,-10.45095c4.2161,-7.30244 4.2161,-16.29959 0,-23.60204c-1.55301,-2.69094 -4.13979,-5.27772 -9.31334,-10.45119c-5.17355,-5.17347 -7.76033,-7.76017 -10.45095,-9.31381c-7.30324,-4.2161 -16.29952,-4.2161 -23.60197,0c-1.49243,0.86132 -2.95182,2.04008 -4.8384,3.8011" stroke="#00ff7b"/><path d="M295.00123,124.37521l-110.66667,110.66667" stroke="#ffffff"/><path d="M306.63442,175.50382c1.88619,-1.7607 3.34597,-2.93923 4.83777,-3.8007c7.30253,-4.2161 16.29952,-4.2161 23.60197,0c2.69102,1.5538 5.27772,4.14058 10.45119,9.31334c5.17347,5.17355 7.76025,7.76033 9.31381,10.45174c4.2161,7.30245 4.2161,16.29952 0,23.60197c-1.55356,2.69062 -4.14034,5.2774 -9.31381,10.45095l-22.25217,22.25209c-5.17347,5.17347 -7.76017,7.76025 -10.45111,9.31381c-7.30252,4.2161 -16.29967,4.2161 -23.60212,0.00008c-2.69062,-1.55364 -5.2774,-4.14042 -10.45095,-9.31389c-5.17355,-5.17347 -7.76032,-7.76017 -9.31412,-10.45111c-4.2161,-7.30245 -4.2161,-16.29952 0,-23.60197c0.86147,-1.49165 2.04,-2.95182 3.80149,-4.83762M295.4076,231.03375c1.76149,-1.8858 2.94002,-3.34598 3.80149,-4.83762c4.21578,-7.30245 4.21578,-16.29952 0,-23.60197c-1.55379,-2.69141 -4.14057,-5.27819 -9.31412,-10.45095c-5.17355,-5.17355 -7.76033,-7.76032 -10.45095,-9.31412c-7.30245,-4.2161 -16.29952,-4.2161 -23.60197,0c-2.69141,1.55379 -5.27819,4.14057 -10.45174,9.31412l-22.25193,22.25193c-5.17356,5.17355 -7.76033,7.76033 -9.31334,10.45095c-4.2161,7.30244 -4.2161,16.29959 0,23.60204c1.55301,2.69094 4.13979,5.27772 9.31334,10.45119c5.17355,5.17347 7.76033,7.76017 10.45095,9.31381c7.30324,4.2161 16.29952,4.2161 23.60197,0c1.49243,-0.86132 2.95182,-2.04008 4.8384,-3.8011" data-paper-data="{&quot;index&quot;:null}" stroke="#00ff7b"/></g></g></svg>